<svg xmlns="http://www.w3.org/2000/svg" viewBox="0 0 512 512">
  <defs>
    <linearGradient id="bg" x1="0%" y1="0%" x2="100%" y2="100%">
      <stop offset="0%" style="stop-color:#1a1a2e"/>
      <stop offset="100%" style="stop-color:#16213e"/>
    </linearGradient>
    <linearGradient id="accent" x1="0%" y1="0%" x2="100%" y2="100%">
      <stop offset="0%" style="stop-color:#9b5de5"/>
      <stop offset="100%" style="stop-color:#7b2cbf"/>
    </linearGradient>
  </defs>
  <!-- Background -->
  <rect width="512" height="512" rx="80" fill="url(#bg)"/>
  <!-- Book/Page shape -->
  <path d="M120 100 L120 380 Q120 420 160 420 L352 420 Q392 420 392 380 L392 140 L320 100 L160 100 Q120 100 120 140 Z"
        fill="#2a2a4a" stroke="url(#accent)" stroke-width="4"/>
  <!-- Page lines -->
  <line x1="160" y1="160" x2="320" y2="160" stroke="#4a4a6a" stroke-width="8" stroke-linecap="round"/>
  <line x1="160" y1="200" x2="280" y2="200" stroke="#4a4a6a" stroke-width="8" stroke-linecap="round"/>
  <line x1="160" y1="240" x2="300" y2="240" stroke="#4a4a6a" stroke-width="8" stroke-linecap="round"/>
  <line x1="160" y1="280" x2="260" y2="280" stroke="#4a4a6a" stroke-width="8" stroke-linecap="round"/>
  <!-- Sparkle/AI symbol -->
  <circle cx="340" cy="340" r="60" fill="url(#accent)" opacity="0.9"/>
  <path d="M340 300 L340 380 M300 340 L380 340 M315 315 L365 365 M365 315 L315 365"
        stroke="white" stroke-width="6" stroke-linecap="round"/>
</svg>
